<?xml version="1.0" encoding="UTF-8" standalone="no"?>
<!-- Creator: CorelDRAW 2018 (64 Bit) -->

<svg
   xmlns:dc="http://purl.org/dc/elements/1.1/"
   xmlns:cc="http://creativecommons.org/ns#"
   xmlns:rdf="http://www.w3.org/1999/02/22-rdf-syntax-ns#"
   xmlns:svg="http://www.w3.org/2000/svg"
   xmlns="http://www.w3.org/2000/svg"
   xmlns:sodipodi="http://sodipodi.sourceforge.net/DTD/sodipodi-0.dtd"
   xmlns:inkscape="http://www.inkscape.org/namespaces/inkscape"
   xml:space="preserve"
   width="26.675646mm"
   height="26.837929mm"
   version="1.1"
   style="clip-rule:evenodd;fill-rule:evenodd;image-rendering:optimizeQuality;shape-rendering:geometricPrecision;text-rendering:geometricPrecision"
   viewBox="0 0 2667.5646 2683.7929"
   id="svg3865"
   sodipodi:docname="rojo - frutales.svg"
   inkscape:version="0.92.4 5da689c313, 2019-01-14"><metadata
   id="metadata3869"><rdf:RDF><cc:Work
       rdf:about=""><dc:format>image/svg+xml</dc:format><dc:type
         rdf:resource="http://purl.org/dc/dcmitype/StillImage" /><dc:title></dc:title></cc:Work></rdf:RDF></metadata><sodipodi:namedview
   pagecolor="#ffffff"
   bordercolor="#666666"
   borderopacity="1"
   objecttolerance="10"
   gridtolerance="10"
   guidetolerance="10"
   inkscape:pageopacity="0"
   inkscape:pageshadow="2"
   inkscape:window-width="1366"
   inkscape:window-height="713"
   id="namedview3867"
   showgrid="false"
   inkscape:zoom="1.8102132"
   inkscape:cx="92.244028"
   inkscape:cy="79.490557"
   inkscape:window-x="0"
   inkscape:window-y="27"
   inkscape:window-maximized="1"
   inkscape:current-layer="svg3865"
   fit-margin-top="-0.2"
   fit-margin-left="0"
   fit-margin-right="0"
   fit-margin-bottom="0" />
 <defs
   id="defs3832">
  <style
   type="text/css"
   id="style3830">
   <![CDATA[
    .str0 {stroke:#FEFEFE;stroke-width:20;stroke-miterlimit:22.9256}
    .str1 {stroke:#F58634;stroke-width:20;stroke-miterlimit:22.9256}
    .fil0 {fill:#FEFEFE}
    .fil1 {fill:#F58634}
   ]]>
  </style>
 </defs>
 <g
   id="Capa_x0020_1"
   transform="translate(-11680.135,-663.37108)">
  <metadata
   id="CorelCorpID_0Corel-Layer" />
  <rect
   class="fil0 str0"
   x="11685.976"
   y="649.21124"
   width="2655.8843"
   height="2692.1125"
   id="rect3835"
   style="fill:#fefefe;stroke:#fefefe;stroke-width:11.68032074;stroke-miterlimit:22.92560005" />
  <circle
   class="fil1 str1"
   cx="13024.74"
   cy="1998.4"
   id="circle3837"
   style="fill:#f58634;stroke:#f58634;stroke-width:20;stroke-miterlimit:22.92560005"
   r="1250" />
  <g
   id="_2939050541056">
   <g
   id="g3847">
    <path
   class="fil0"
   d="m 12860.19,2371.6 33.78,-0.41 c 38.06,-133.73 102.22,-256.52 196.15,-355.15 73.6,-77.27 218.68,-173.92 385.07,-166.88 -1.64,187.74 -120.19,358.17 -270.84,438.54 -41.95,22.38 -124.73,52.69 -180.23,55.96 4.23,-75.38 145.87,-220.79 213.38,-275.17 14.3,-11.52 85.09,-63.12 91.03,-72.17 -102.08,15.31 -248.76,147.59 -300.65,239.72 -12.82,22.75 -51.27,104.12 -47.43,134.19 150.51,7.39 290.32,-54.25 385.16,-154.61 41.34,-43.74 75.12,-99.64 101.11,-170.24 19.43,-52.76 47.63,-166.07 43.42,-228.16 -200.47,0.26 -331.85,66.36 -436.99,162.89 -47.36,43.47 -96.87,112.94 -128.78,172.38 -24.01,44.73 -81.03,160.66 -84.18,219.11 z"
   id="path3839"
   inkscape:connector-curvature="0"
   style="fill:#fefefe" />
    <path
   class="fil0"
   d="m 12840.25,2370.46 12.84,-28.19 c -56.11,-12.19 -109.98,-13.62 -139.73,-48.53 -81.86,-96.06 -139.06,-291.67 -142.96,-422.82 52.91,-0.51 108.8,11.62 161.15,15.61 103.15,7.86 244.36,10.71 346.97,6.05 58.38,-2.64 108.42,2.05 146.11,-31.55 -51.51,-2.73 -119.11,4.48 -173.24,5.15 -59.73,0.74 -119.86,0.8 -179.32,-1.5 -86.09,-3.33 -167.03,-8.85 -252.48,-19.49 -24.06,-3 -57.38,-9.74 -79.56,-10.14 -5.97,35.24 13.78,146.73 21.72,184.36 11.91,56.52 27.96,110.34 49.08,159.76 43.8,102.49 105.4,193.24 229.42,191.29 z"
   id="path3841"
   inkscape:connector-curvature="0"
   style="fill:#fefefe" />
    <path
   class="fil0"
   d="m 12899.84,1758.58 c -6.62,-64.3 -27.43,-80.84 2.22,-145 36.11,-78.16 112.61,-142.87 82.98,-253.81 -9.78,-36.64 -42.81,-96.95 -74.57,-101.77 53.03,185.15 -102.3,256.97 -78.25,395.64 6.68,38.5 43.82,94.03 67.62,104.94 z"
   id="path3843"
   inkscape:connector-curvature="0"
   style="fill:#fefefe" />
    <path
   class="fil0"
   d="m 12940.15,1768.96 c 59.01,-15.85 124.23,-199.38 86.82,-250.96 -28.17,5.84 -71.92,75.46 -83.63,101.66 -9.49,21.23 -18.13,45.9 -18.48,72.78 -0.3,22.47 4.66,59.81 15.29,76.52 z"
   id="path3845"
   inkscape:connector-curvature="0"
   style="fill:#fefefe" />
   </g>
   <g
   id="g3861">
    <path
   class="fil0"
   d="m 13468.6,2620.35 0.5,38.83 21.54,-0.12 -0.05,-211.21 -20.67,-0.31 -1.2,26.44 c -35.46,-38.21 -81.93,-58.12 -136.91,-37.03 -98.4,37.76 -101.1,183.92 4,222.07 59.29,21.53 107.22,-9.74 132.79,-38.67 z m -110.87,-166.63 c -122.84,23.54 -91.46,207.67 34.38,187.45 50.52,-8.12 83.69,-53.11 76.55,-112.52 -5.57,-46.39 -56.53,-85.35 -110.93,-74.93 z"
   id="path3849"
   inkscape:connector-curvature="0"
   style="fill:#fefefe" />
    <path
   class="fil0"
   d="m 12778.97,2621.59 0.72,37.23 21.77,0.03 -0.11,-210.75 -20.76,-0.45 -1.33,25.5 c -15.94,-14.79 -27.73,-28.99 -53.2,-37.65 -76.45,-25.99 -158.1,28.17 -158.02,111.69 0.08,92.92 113.76,171.5 210.93,74.4 z m -108.82,-168.39 c -124.9,22.74 -93.52,205.52 30.59,188.29 53.67,-7.45 83.21,-51.36 78.68,-110.61 -3.58,-46.72 -54.91,-87.58 -109.27,-77.68 z"
   id="path3851"
   inkscape:connector-curvature="0"
   style="fill:#fefefe" />
    <path
   class="fil0"
   d="m 12354.05,2658.8 21.88,0.34 c -0.69,-38.21 -0.02,-76.61 -0.12,-114.67 -0.08,-29.83 -3.52,-26.62 10.76,-46.24 8.03,-11.03 15.01,-24.78 24.52,-32.98 9.5,8.76 111.45,156.86 128.18,181.67 9.4,13.93 11.6,14.73 33.59,11.18 l -110.87,-159.07 c -12.21,-17.04 -28.63,-38.12 -37.07,-55.21 l 87.64,-127.77 -25.94,0.19 c -9.34,18.97 -102.84,149.93 -110.54,158.11 l -0.28,-158.09 -21.98,-0.02 z"
   id="path3853"
   inkscape:connector-curvature="0"
   style="fill:#fefefe" />
    <path
   class="fil0"
   d="m 12904.89,2658.54 c 7.32,-12.32 26.76,-73.09 35.02,-95.39 2.05,-5.56 3.86,-10.54 5.62,-15.84 2.64,-7.95 3.6,-11.99 9.6,-17.51 l 40.48,114.05 c 3.42,10 2.24,11.25 9.67,15.4 14.04,3.08 17.22,-22.1 26.11,-48.12 10.53,-30.8 52.48,-147.59 54.41,-163.17 l -22.97,-0.4 -53.88,166.8 c -8.87,-13.44 -19.53,-48.66 -25.35,-64.54 -6.8,-18.54 -16.5,-51.88 -25.11,-66.67 l -10.19,0.34 c -8.12,11.89 -36.38,104.59 -50.17,132.79 l -53.74,-168.6 -22.98,0.01 c 0.45,13.12 29.16,90.67 35.54,109.48 l 28.09,83.24 c 5.1,16.69 2.2,19.75 19.85,18.13 z"
   id="path3855"
   inkscape:connector-curvature="0"
   style="fill:#fefefe" />
    <path
   class="fil0"
   d="m 13538.11,2738.55 22.06,0.25 c 11.12,-16.88 25.03,-52.52 34.06,-71.89 l 101.43,-218.43 -22.09,-0.81 c -26.1,41.12 -43.69,101.49 -68.54,142.73 l -68.65,-142.49 -22.18,0.14 c 1.15,9.23 57.46,127.34 65.35,143.39 17.41,35.41 13.6,26.33 -8.45,73.96 -7.66,16.55 -30.06,59.51 -32.99,73.15 z"
   id="path3857"
   inkscape:connector-curvature="0"
   style="fill:#fefefe" />
    <path
   class="fil0"
   d="m 13116.52,2594.79 -18.53,4.55 c -1.52,36.62 37.86,69.55 79.69,58.02 31.61,-8.71 60.78,-51.37 38.68,-90.65 -17.53,-31.17 -66.59,-43.7 -77.53,-63.51 -20.02,-36.25 43,-75.15 56.29,-13.07 l 18.95,-6.99 c -2.26,-71.29 -114.43,-55.3 -99.06,16.89 10.7,50.25 115.44,54.19 82.05,116.87 -10.66,20.01 -60.21,43.3 -78.17,-15.34 -0.24,-0.76 -0.51,-1.57 -0.73,-2.26 z"
   id="path3859"
   inkscape:connector-curvature="0"
   style="fill:#fefefe" />
   </g>
  </g>
 </g>
</svg>