<?xml version="1.0" encoding="UTF-8"?>
<!DOCTYPE svg PUBLIC "-//W3C//DTD SVG 1.1//EN" "http://www.w3.org/Graphics/SVG/1.1/DTD/svg11.dtd">
<svg version="1.2" width="215mm" height="242mm" viewBox="0 0 21500 24200" preserveAspectRatio="xMidYMid" fill-rule="evenodd" stroke-width="28.222" stroke-linejoin="round" xmlns="http://www.w3.org/2000/svg" xmlns:ooo="http://xml.openoffice.org/svg/export" xmlns:xlink="http://www.w3.org/1999/xlink" xmlns:presentation="http://sun.com/xmlns/staroffice/presentation" xmlns:smil="http://www.w3.org/2001/SMIL20/" xmlns:anim="urn:oasis:names:tc:opendocument:xmlns:animation:1.0" xml:space="preserve">
 <defs class="ClipPathGroup">
  <clipPath id="presentation_clip_path" clipPathUnits="userSpaceOnUse">
   <rect x="0" y="0" width="21500" height="24200"/>
  </clipPath>
  <clipPath id="presentation_clip_path_shrink" clipPathUnits="userSpaceOnUse">
   <rect x="21" y="24" width="21457" height="24152"/>
  </clipPath>
 </defs>
 <defs class="TextShapeIndex">
  <g ooo:slide="id1" ooo:id-list="id3"/>
 </defs>
 <defs class="EmbeddedBulletChars">
  <g id="bullet-char-template-57356" transform="scale(0.00048828125,-0.00048828125)">
   <path d="M 580,1141 L 1163,571 580,0 -4,571 580,1141 Z"/>
  </g>
  <g id="bullet-char-template-57354" transform="scale(0.00048828125,-0.00048828125)">
   <path d="M 8,1128 L 1137,1128 1137,0 8,0 8,1128 Z"/>
  </g>
  <g id="bullet-char-template-10146" transform="scale(0.00048828125,-0.00048828125)">
   <path d="M 174,0 L 602,739 174,1481 1456,739 174,0 Z M 1358,739 L 309,1346 659,739 1358,739 Z"/>
  </g>
  <g id="bullet-char-template-10132" transform="scale(0.00048828125,-0.00048828125)">
   <path d="M 2015,739 L 1276,0 717,0 1260,543 174,543 174,936 1260,936 717,1481 1274,1481 2015,739 Z"/>
  </g>
  <g id="bullet-char-template-10007" transform="scale(0.00048828125,-0.00048828125)">
   <path d="M 0,-2 C -7,14 -16,27 -25,37 L 356,567 C 262,823 215,952 215,954 215,979 228,992 255,992 264,992 276,990 289,987 310,991 331,999 354,1012 L 381,999 492,748 772,1049 836,1024 860,1049 C 881,1039 901,1025 922,1006 886,937 835,863 770,784 769,783 710,716 594,584 L 774,223 C 774,196 753,168 711,139 L 727,119 C 717,90 699,76 672,76 641,76 570,178 457,381 L 164,-76 C 142,-110 111,-127 72,-127 30,-127 9,-110 8,-76 1,-67 -2,-52 -2,-32 -2,-23 -1,-13 0,-2 Z"/>
  </g>
  <g id="bullet-char-template-10004" transform="scale(0.00048828125,-0.00048828125)">
   <path d="M 285,-33 C 182,-33 111,30 74,156 52,228 41,333 41,471 41,549 55,616 82,672 116,743 169,778 240,778 293,778 328,747 346,684 L 369,508 C 377,444 397,411 428,410 L 1163,1116 C 1174,1127 1196,1133 1229,1133 1271,1133 1292,1118 1292,1087 L 1292,965 C 1292,929 1282,901 1262,881 L 442,47 C 390,-6 338,-33 285,-33 Z"/>
  </g>
  <g id="bullet-char-template-9679" transform="scale(0.00048828125,-0.00048828125)">
   <path d="M 813,0 C 632,0 489,54 383,161 276,268 223,411 223,592 223,773 276,916 383,1023 489,1130 632,1184 813,1184 992,1184 1136,1130 1245,1023 1353,916 1407,772 1407,592 1407,412 1353,268 1245,161 1136,54 992,0 813,0 Z"/>
  </g>
  <g id="bullet-char-template-8226" transform="scale(0.00048828125,-0.00048828125)">
   <path d="M 346,457 C 273,457 209,483 155,535 101,586 74,649 74,723 74,796 101,859 155,911 209,963 273,989 346,989 419,989 480,963 531,910 582,859 608,796 608,723 608,648 583,586 532,535 482,483 420,457 346,457 Z"/>
  </g>
  <g id="bullet-char-template-8211" transform="scale(0.00048828125,-0.00048828125)">
   <path d="M -4,459 L 1135,459 1135,606 -4,606 -4,459 Z"/>
  </g>
  <g id="bullet-char-template-61548" transform="scale(0.00048828125,-0.00048828125)">
   <path d="M 173,740 C 173,903 231,1043 346,1159 462,1274 601,1332 765,1332 928,1332 1067,1274 1183,1159 1299,1043 1357,903 1357,740 1357,577 1299,437 1183,322 1067,206 928,148 765,148 601,148 462,206 346,322 231,437 173,577 173,740 Z"/>
  </g>
 </defs>
 <defs class="TextEmbeddedBitmaps"/>
 <g>
  <g id="id2" class="Master_Slide">
   <g id="bg-id2" class="Background"/>
   <g id="bo-id2" class="BackgroundObjects"/>
  </g>
 </g>
 <g class="SlideGroup">
  <g>
   <g id="container-id1">
    <g id="id1" class="Slide" clip-path="url(#presentation_clip_path)">
     <g class="Page">
      <g class="Graphic">
       <g id="id3">
        <rect class="BoundingBox" stroke="none" fill="none" x="1000" y="600" width="19681" height="22831"/>
        <defs>
         <clipPath id="clip_path_1" clipPathUnits="userSpaceOnUse">
          <path d="M 1000,600 L 20680,600 20680,23430 1000,23430 1000,600 Z"/>
         </clipPath>
        </defs>
        <g clip-path="url(#clip_path_1)">
         <path fill="rgb(254,254,254)" stroke="none" d="M 20100,24189 L 1651,24189 1651,2837 38550,2837 38550,24189 20100,24189 Z"/>
         <path fill="none" stroke="rgb(254,254,254)" stroke-width="123" stroke-linejoin="miter" d="M 20100,24189 L 1651,24189 1651,2837 38550,2837 38550,24189 20100,24189 Z"/>
         <path fill="rgb(237,50,55)" stroke="none" d="M 18716,12932 C 18716,14343 18395,15542 17689,16764 16984,17985 16106,18863 14884,19568 13663,20274 12463,20595 11053,20595 9642,20595 8443,20274 7221,19568 5999,18863 5121,17985 4416,16764 3711,15542 3389,14343 3389,12932 3389,11521 3711,10322 4416,9101 5121,7879 5999,7001 7221,6296 8443,5590 9642,5269 11053,5269 12463,5269 13663,5590 14884,6296 16106,7001 16984,7879 17689,9101 18395,10322 18716,11521 18716,12932 L 18716,12932 Z"/>
         <path fill="none" stroke="rgb(237,50,55)" stroke-width="123" stroke-linejoin="miter" d="M 18716,12932 C 18716,14343 18395,15542 17689,16764 16984,17985 16106,18863 14884,19568 13663,20274 12463,20595 11053,20595 9642,20595 8443,20274 7221,19568 5999,18863 5121,17985 4416,16764 3711,15542 3389,14343 3389,12932 3389,11521 3711,10322 4416,9101 5121,7879 5999,7001 7221,6296 8443,5590 9642,5269 11053,5269 12463,5269 13663,5590 14884,6296 16106,7001 16984,7879 17689,9101 18395,10322 18716,11521 18716,12932 L 18716,12932 Z"/>
         <path fill="rgb(254,254,254)" stroke="none" d="M 10044,15220 L 10251,15217 C 10484,14398 10878,13645 11453,13040 11905,12567 12794,11974 13814,12017 13804,13168 13077,14213 12154,14706 11897,14843 11389,15029 11049,15049 11075,14587 11943,13695 12357,13362 12445,13291 12879,12975 12915,12919 12289,13013 11390,13824 11072,14389 10993,14528 10758,15027 10781,15212 11704,15257 12561,14879 13142,14264 13396,13996 13603,13653 13762,13220 13881,12897 14054,12202 14028,11821 12799,11823 11994,12228 11349,12820 11059,13086 10756,13512 10560,13877 10413,14151 10063,14862 10044,15220 L 10044,15220 Z"/>
         <path fill="rgb(254,254,254)" stroke="none" d="M 9922,15213 L 10000,15040 C 9656,14965 9326,14957 9144,14743 8642,14154 8291,12955 8267,12151 8592,12147 8934,12222 9255,12246 9888,12294 10753,12312 11382,12283 11740,12267 12047,12296 12278,12090 11962,12073 11548,12117 11216,12122 10850,12126 10481,12126 10117,12112 9589,12092 9093,12058 8569,11993 8421,11974 8217,11933 8081,11931 8044,12147 8166,12830 8214,13061 8287,13407 8386,13737 8515,14040 8784,14669 9161,15225 9922,15213 L 9922,15213 Z"/>
         <path fill="rgb(254,254,254)" stroke="none" d="M 10287,11462 C 10246,11068 10119,10966 10301,10573 10522,10094 10991,9697 10809,9017 10749,8792 10547,8423 10352,8393 10677,9528 9725,9968 9872,10819 9913,11055 10141,11395 10287,11462 L 10287,11462 Z"/>
         <path fill="rgb(254,254,254)" stroke="none" d="M 10534,11526 C 10896,11428 11296,10303 11066,9987 10894,10023 10625,10450 10554,10610 10495,10740 10442,10892 10440,11056 10438,11194 10469,11423 10534,11526 L 10534,11526 Z"/>
         <path fill="rgb(254,254,254)" stroke="none" d="M 13774,16745 L 13777,16983 13909,16982 13909,15687 13782,15686 13775,15848 C 13557,15613 13272,15491 12935,15621 12332,15852 12315,16748 12960,16982 13323,17114 13617,16922 13774,16745 L 13774,16745 Z M 13094,15723 C 12341,15868 12533,16997 13305,16873 13615,16823 13818,16547 13774,16183 13740,15898 13428,15660 13094,15723 L 13094,15723 Z"/>
         <path fill="rgb(254,254,254)" stroke="none" d="M 9546,16753 L 9550,16981 9684,16981 9683,15689 9556,15686 9548,15843 C 9450,15752 9378,15665 9222,15612 8753,15452 8252,15784 8253,16296 8253,16866 8950,17348 9546,16753 L 9546,16753 Z M 8879,15720 C 8113,15860 8305,16980 9066,16875 9395,16829 9576,16560 9549,16196 9527,15910 9212,15660 8879,15720 L 8879,15720 Z"/>
         <path fill="rgb(254,254,254)" stroke="none" d="M 6941,16981 L 7075,16983 C 7071,16748 7075,16513 7074,16280 7074,16097 7053,16117 7140,15996 7189,15929 7232,15844 7291,15794 7349,15848 7974,16756 8076,16908 8134,16993 8147,16998 8282,16976 L 7603,16001 C 7528,15897 7427,15767 7375,15663 L 7913,14879 7754,14881 C 7696,14997 7123,15800 7076,15850 L 7074,14881 6939,14881 6941,16981 6941,16981 Z"/>
         <path fill="rgb(254,254,254)" stroke="none" d="M 10318,16979 C 10363,16904 10482,16531 10533,16394 10545,16360 10556,16330 10567,16297 10583,16248 10589,16224 10626,16190 L 10874,16889 C 10895,16950 10888,16958 10933,16983 11019,17002 11039,16848 11093,16688 11158,16500 11415,15784 11427,15688 L 11286,15686 10956,16708 C 10901,16626 10836,16410 10800,16313 10759,16199 10699,15994 10646,15904 L 10584,15906 C 10534,15979 10361,16547 10276,16720 L 9947,15686 9806,15686 C 9809,15767 9985,16242 10024,16358 L 10196,16868 C 10227,16970 10210,16989 10318,16979 L 10318,16979 Z"/>
         <path fill="rgb(254,254,254)" stroke="none" d="M 14200,17470 L 14335,17471 C 14403,17368 14489,17149 14544,17030 L 15166,15691 15030,15686 C 14870,15938 14763,16308 14610,16561 L 14189,15688 14053,15689 C 14060,15745 14406,16469 14454,16568 14561,16785 14537,16729 14402,17021 14355,17123 14218,17386 14200,17470 L 14200,17470 Z"/>
         <path fill="rgb(254,254,254)" stroke="none" d="M 11615,16588 L 11502,16616 C 11492,16841 11734,17042 11990,16972 12184,16918 12363,16657 12227,16416 12120,16225 11819,16148 11752,16027 11629,15805 12016,15566 12097,15947 L 12213,15904 C 12200,15467 11512,15565 11606,16007 11672,16315 12314,16340 12109,16724 12044,16846 11740,16989 11630,16630 11628,16625 11627,16620 11625,16616 L 11615,16588 11615,16588 Z"/>
        </g>
       </g>
      </g>
     </g>
    </g>
   </g>
  </g>
 </g>
</svg>